<?xml version="1.0" encoding="UTF-8" standalone="no"?>
<!DOCTYPE svg PUBLIC "-//W3C//DTD SVG 1.1//EN"
 "http://www.w3.org/Graphics/SVG/1.1/DTD/svg11.dtd">
<!-- Generated by graphviz version 2.36.0 (20140111.2315)
 -->
<!-- Title: G Pages: 1 -->
<svg width="825pt" height="1364pt"
 viewBox="0.00 0.00 825.00 1364.00" xmlns="http://www.w3.org/2000/svg" xmlns:xlink="http://www.w3.org/1999/xlink">
<g id="graph0" class="graph" transform="scale(1 1) rotate(0) translate(4 1360)">
<title>G</title>
<polygon fill="white" stroke="none" points="-4,4 -4,-1360 821,-1360 821,4 -4,4"/>
<!-- n1 -->
<g id="node1" class="node"><title>n1</title>
<g id="a_node1"><a xlink:title="[/home/siyuan/Workspace/dkt/scripts/test.lua]:45">
<ellipse fill="none" stroke="black" cx="535" cy="-251" rx="82.0366" ry="26.7407"/>
<text text-anchor="middle" x="535" y="-254.8" font-family="Times,serif" font-size="14.00">pred (1)</text>
<text text-anchor="middle" x="535" y="-239.8" font-family="Times,serif" font-size="14.00">module = nn.Sum</text>
</a>
</g>
</g>
<!-- n2 -->
<g id="node2" class="node"><title>n2</title>
<g id="a_node2"><a xlink:title="[[C]]:&#45;1">
<ellipse fill="none" stroke="black" cx="381" cy="-38" rx="152.042" ry="37.4533"/>
<text text-anchor="middle" x="381" y="-49.3" font-family="Times,serif" font-size="14.00">Node2</text>
<text text-anchor="start" x="281.5" y="-34.3" font-family="Times,serif" font-size="14.00">input = {}</text>
<text text-anchor="middle" x="381" y="-19.3" font-family="Times,serif" font-size="14.00">mapindex = {Node1,Node3,Node4}</text>
</a>
</g>
</g>
<!-- n1&#45;&gt;n2 -->
<g id="edge1" class="edge"><title>n1&#45;&gt;n2</title>
<path fill="none" stroke="black" d="M469.394,-234.687C443.835,-225.393 416.719,-210.76 400,-188 378.64,-158.921 374.819,-117.751 375.817,-86.0539"/>
<polygon fill="black" stroke="black" points="379.331,-85.8572 376.322,-75.6986 372.339,-85.5162 379.331,-85.8572"/>
</g>
<!-- n3 -->
<g id="node3" class="node"><title>n3</title>
<g id="a_node3"><a xlink:title="[[C]]:&#45;1">
<ellipse fill="none" stroke="black" cx="559" cy="-150" rx="149.36" ry="37.4533"/>
<text text-anchor="middle" x="559" y="-161.3" font-family="Times,serif" font-size="14.00">err (3)</text>
<text text-anchor="start" x="461" y="-146.3" font-family="Times,serif" font-size="14.00">module = nn.ModuleFromCriterion</text>
<text text-anchor="middle" x="559" y="-131.3" font-family="Times,serif" font-size="14.00">mapindex = {Node1,Node6}</text>
</a>
</g>
</g>
<!-- n1&#45;&gt;n3 -->
<g id="edge5" class="edge"><title>n1&#45;&gt;n3</title>
<path fill="none" stroke="black" d="M541.306,-223.989C543.284,-215.827 545.532,-206.556 547.745,-197.425"/>
<polygon fill="black" stroke="black" points="551.165,-198.174 550.12,-187.631 544.362,-196.525 551.165,-198.174"/>
</g>
<!-- n3&#45;&gt;n2 -->
<g id="edge2" class="edge"><title>n3&#45;&gt;n2</title>
<path fill="none" stroke="black" d="M504.142,-115.099C485.278,-103.441 464.001,-90.293 444.507,-78.246"/>
<polygon fill="black" stroke="black" points="446.33,-75.2583 435.984,-72.9786 442.65,-81.213 446.33,-75.2583"/>
</g>
<!-- n4 -->
<g id="node4" class="node"><title>n4</title>
<g id="a_node4"><a xlink:title="[/home/siyuan/Workspace/dkt/scripts/test.lua]:38">
<ellipse fill="none" stroke="black" cx="335" cy="-723" rx="84.2187" ry="26.7407"/>
<text text-anchor="middle" x="335" y="-726.8" font-family="Times,serif" font-size="14.00">hidden (4)</text>
<text text-anchor="middle" x="335" y="-711.8" font-family="Times,serif" font-size="14.00">module = nn.Tanh</text>
</a>
</g>
</g>
<!-- n4&#45;&gt;n2 -->
<g id="edge3" class="edge"><title>n4&#45;&gt;n2</title>
<path fill="none" stroke="black" d="M328.533,-695.949C320.545,-661.433 308,-598.542 308,-544 308,-544 308,-544 308,-250 308,-190.359 334.37,-126.189 355.412,-84.479"/>
<polygon fill="black" stroke="black" points="358.614,-85.9052 360.081,-75.4124 352.391,-82.7004 358.614,-85.9052"/>
</g>
<!-- n18 -->
<g id="node18" class="node"><title>n18</title>
<g id="a_node18"><a xlink:title="[/home/siyuan/Workspace/dkt/scripts/test.lua]:41">
<ellipse fill="none" stroke="black" cx="475" cy="-633" rx="138.389" ry="26.7407"/>
<text text-anchor="middle" x="475" y="-636.8" font-family="Times,serif" font-size="14.00">predInput (18)</text>
<text text-anchor="middle" x="475" y="-621.8" font-family="Times,serif" font-size="14.00">module = nn.Dropout(0.500000)</text>
</a>
</g>
</g>
<!-- n4&#45;&gt;n18 -->
<g id="edge23" class="edge"><title>n4&#45;&gt;n18</title>
<path fill="none" stroke="black" d="M372.15,-698.649C388.858,-688.147 408.794,-675.615 426.647,-664.393"/>
<polygon fill="black" stroke="black" points="428.617,-667.289 435.221,-659.004 424.892,-661.362 428.617,-667.289"/>
</g>
<!-- n5 -->
<g id="node5" class="node"><title>n5</title>
<g id="a_node5"><a xlink:title="[/home/siyuan/Workspace/dkt/scripts/test.lua]:45">
<ellipse fill="none" stroke="black" cx="535" cy="-352" rx="124.176" ry="37.4533"/>
<text text-anchor="middle" x="535" y="-363.3" font-family="Times,serif" font-size="14.00">Node5</text>
<text text-anchor="start" x="455" y="-348.3" font-family="Times,serif" font-size="14.00">module = nn.CMulTable</text>
<text text-anchor="middle" x="535" y="-333.3" font-family="Times,serif" font-size="14.00">mapindex = {Node8,Node9}</text>
</a>
</g>
</g>
<!-- n5&#45;&gt;n1 -->
<g id="edge4" class="edge"><title>n5&#45;&gt;n1</title>
<path fill="none" stroke="black" d="M535,-314.417C535,-305.802 535,-296.626 535,-288.035"/>
<polygon fill="black" stroke="black" points="538.5,-287.924 535,-277.924 531.5,-287.924 538.5,-287.924"/>
</g>
<!-- n6 -->
<g id="node6" class="node"><title>n6</title>
<g id="a_node6"><a xlink:title="[/home/siyuan/Workspace/dkt/scripts/test.lua]:33">
<ellipse fill="none" stroke="black" cx="722" cy="-824" rx="94.0678" ry="26.7407"/>
<text text-anchor="middle" x="722" y="-827.8" font-family="Times,serif" font-size="14.00">truth (6)</text>
<text text-anchor="middle" x="722" y="-812.8" font-family="Times,serif" font-size="14.00">module = nn.Identity</text>
</a>
</g>
</g>
<!-- n6&#45;&gt;n3 -->
<g id="edge6" class="edge"><title>n6&#45;&gt;n3</title>
<path fill="none" stroke="black" d="M722,-797.014C722,-760.58 722,-692.242 722,-634 722,-634 722,-634 722,-351 722,-284.235 666.744,-227.417 620.576,-191.596"/>
<polygon fill="black" stroke="black" points="622.455,-188.628 612.372,-185.373 618.224,-194.205 622.455,-188.628"/>
</g>
<!-- n7 -->
<g id="node7" class="node"><title>n7</title>
<g id="a_node7"><a xlink:title="[/home/siyuan/Workspace/dkt/scripts/test.lua]:37">
<ellipse fill="none" stroke="black" cx="335" cy="-824" rx="133.465" ry="37.4533"/>
<text text-anchor="middle" x="335" y="-835.3" font-family="Times,serif" font-size="14.00">madd (7)</text>
<text text-anchor="start" x="248.5" y="-820.3" font-family="Times,serif" font-size="14.00">module = nn.CAddTable</text>
<text text-anchor="middle" x="335" y="-805.3" font-family="Times,serif" font-size="14.00">mapindex = {Node11,Node12}</text>
</a>
</g>
</g>
<!-- n7&#45;&gt;n4 -->
<g id="edge7" class="edge"><title>n7&#45;&gt;n4</title>
<path fill="none" stroke="black" d="M335,-786.417C335,-777.802 335,-768.626 335,-760.035"/>
<polygon fill="black" stroke="black" points="338.5,-759.924 335,-749.924 331.5,-759.924 338.5,-759.924"/>
</g>
<!-- n8 -->
<g id="node8" class="node"><title>n8</title>
<g id="a_node8"><a xlink:title="[/home/siyuan/Workspace/dkt/scripts/test.lua]:44">
<ellipse fill="none" stroke="black" cx="488" cy="-453" rx="96.3112" ry="26.7407"/>
<text text-anchor="middle" x="488" y="-456.8" font-family="Times,serif" font-size="14.00">pred_output (8)</text>
<text text-anchor="middle" x="488" y="-441.8" font-family="Times,serif" font-size="14.00">module = nn.Sigmoid</text>
</a>
</g>
</g>
<!-- n8&#45;&gt;n5 -->
<g id="edge8" class="edge"><title>n8&#45;&gt;n5</title>
<path fill="none" stroke="black" d="M500.226,-426.247C504.266,-417.738 508.888,-408.001 513.415,-398.465"/>
<polygon fill="black" stroke="black" points="516.577,-399.966 517.704,-389.431 510.254,-396.964 516.577,-399.966"/>
</g>
<!-- n9 -->
<g id="node9" class="node"><title>n9</title>
<g id="a_node9"><a xlink:title="[/home/siyuan/Workspace/dkt/scripts/test.lua]:32">
<ellipse fill="none" stroke="black" cx="600" cy="-723" rx="94.0678" ry="26.7407"/>
<text text-anchor="middle" x="600" y="-726.8" font-family="Times,serif" font-size="14.00">inputY (9)</text>
<text text-anchor="middle" x="600" y="-711.8" font-family="Times,serif" font-size="14.00">module = nn.Identity</text>
</a>
</g>
</g>
<!-- n9&#45;&gt;n5 -->
<g id="edge9" class="edge"><title>n9&#45;&gt;n5</title>
<path fill="none" stroke="black" d="M611.342,-696.285C615.586,-685.33 619.888,-672.269 622,-660 625.618,-638.986 620.233,-523.778 619,-516 612.479,-474.878 612.09,-463.001 593,-426 587.719,-415.764 580.893,-405.579 573.788,-396.206"/>
<polygon fill="black" stroke="black" points="576.432,-393.905 567.505,-388.198 570.924,-398.226 576.432,-393.905"/>
</g>
<!-- n10 -->
<g id="node10" class="node"><title>n10</title>
<g id="a_node10"><a xlink:title="[[C]]:&#45;1&#45;4">
<ellipse fill="none" stroke="black" cx="717" cy="-936" rx="70.5656" ry="37.4533"/>
<text text-anchor="middle" x="717" y="-947.3" font-family="Times,serif" font-size="14.00">Node10</text>
<text text-anchor="start" x="675" y="-932.3" font-family="Times,serif" font-size="14.00">input = {}</text>
<text text-anchor="middle" x="717" y="-917.3" font-family="Times,serif" font-size="14.00">selectindex = 4</text>
</a>
</g>
</g>
<!-- n10&#45;&gt;n6 -->
<g id="edge10" class="edge"><title>n10&#45;&gt;n6</title>
<path fill="none" stroke="black" d="M718.665,-898.372C719.21,-886.384 719.815,-873.08 720.358,-861.129"/>
<polygon fill="black" stroke="black" points="723.858,-861.191 720.816,-851.042 716.866,-860.873 723.858,-861.191"/>
</g>
<!-- n11 -->
<g id="node11" class="node"><title>n11</title>
<g id="a_node11"><a xlink:title="[/home/siyuan/Workspace/dkt/scripts/test.lua]:35">
<ellipse fill="none" stroke="black" cx="138" cy="-936" rx="138.389" ry="26.7407"/>
<text text-anchor="middle" x="138" y="-939.8" font-family="Times,serif" font-size="14.00">linM (11)</text>
<text text-anchor="middle" x="138" y="-924.8" font-family="Times,serif" font-size="14.00">module = nn.Linear(200 &#45;&gt; 200)</text>
</a>
</g>
</g>
<!-- n11&#45;&gt;n7 -->
<g id="edge11" class="edge"><title>n11&#45;&gt;n7</title>
<path fill="none" stroke="black" d="M182.211,-910.314C207.29,-896.31 239.197,-878.494 267.36,-862.768"/>
<polygon fill="black" stroke="black" points="269.334,-865.675 276.359,-857.744 265.922,-859.563 269.334,-865.675"/>
</g>
<!-- n12 -->
<g id="node12" class="node"><title>n12</title>
<g id="a_node12"><a xlink:title="[/home/siyuan/Workspace/dkt/scripts/test.lua]:36">
<ellipse fill="none" stroke="black" cx="433" cy="-936" rx="138.389" ry="26.7407"/>
<text text-anchor="middle" x="433" y="-939.8" font-family="Times,serif" font-size="14.00">linX (12)</text>
<text text-anchor="middle" x="433" y="-924.8" font-family="Times,serif" font-size="14.00">module = nn.Linear(100 &#45;&gt; 200)</text>
</a>
</g>
</g>
<!-- n12&#45;&gt;n7 -->
<g id="edge12" class="edge"><title>n12&#45;&gt;n7</title>
<path fill="none" stroke="black" d="M410.271,-909.487C399.393,-897.278 386.063,-882.316 373.66,-868.393"/>
<polygon fill="black" stroke="black" points="376.151,-865.928 366.886,-860.79 370.924,-870.585 376.151,-865.928"/>
</g>
<!-- n13 -->
<g id="node13" class="node"><title>n13</title>
<g id="a_node13"><a xlink:title="[/home/siyuan/Workspace/dkt/scripts/test.lua]:43">
<ellipse fill="none" stroke="black" cx="477" cy="-543" rx="133.465" ry="26.7407"/>
<text text-anchor="middle" x="477" y="-546.8" font-family="Times,serif" font-size="14.00">linY (13)</text>
<text text-anchor="middle" x="477" y="-531.8" font-family="Times,serif" font-size="14.00">module = nn.Linear(200 &#45;&gt; 50)</text>
</a>
</g>
</g>
<!-- n13&#45;&gt;n8 -->
<g id="edge13" class="edge"><title>n13&#45;&gt;n8</title>
<path fill="none" stroke="black" d="M480.241,-516.073C481.261,-507.911 482.407,-498.744 483.499,-490.011"/>
<polygon fill="black" stroke="black" points="486.977,-490.403 484.744,-480.046 480.031,-489.534 486.977,-490.403"/>
</g>
<!-- n14 -->
<g id="node14" class="node"><title>n14</title>
<g id="a_node14"><a xlink:title="[[C]]:&#45;1&#45;3">
<ellipse fill="none" stroke="black" cx="599" cy="-1138" rx="70.5656" ry="37.4533"/>
<text text-anchor="middle" x="599" y="-1149.3" font-family="Times,serif" font-size="14.00">Node14</text>
<text text-anchor="start" x="557" y="-1134.3" font-family="Times,serif" font-size="14.00">input = {}</text>
<text text-anchor="middle" x="599" y="-1119.3" font-family="Times,serif" font-size="14.00">selectindex = 3</text>
</a>
</g>
</g>
<!-- n14&#45;&gt;n9 -->
<g id="edge14" class="edge"><title>n14&#45;&gt;n9</title>
<path fill="none" stroke="black" d="M599.089,-1100.35C599.279,-1021.91 599.723,-838.581 599.912,-760.384"/>
<polygon fill="black" stroke="black" points="603.413,-760.078 599.937,-750.07 596.413,-760.061 603.413,-760.078"/>
</g>
<!-- n15 -->
<g id="node15" class="node"><title>n15</title>
<g id="a_node15"><a xlink:title="[[C]]:&#45;1&#45;mnode">
<ellipse fill="none" stroke="black" cx="517" cy="-1239" rx="80.415" ry="26.7407"/>
<text text-anchor="middle" x="517" y="-1242.8" font-family="Times,serif" font-size="14.00">Node15</text>
<text text-anchor="middle" x="517" y="-1227.8" font-family="Times,serif" font-size="14.00">nSplitOutputs = 4</text>
</a>
</g>
</g>
<!-- n15&#45;&gt;n10 -->
<g id="edge15" class="edge"><title>n15&#45;&gt;n10</title>
<path fill="none" stroke="black" d="M589.125,-1226.84C620.975,-1218.22 656.086,-1202.96 678,-1176 722.374,-1121.4 725.4,-1036.06 722.173,-983.495"/>
<polygon fill="black" stroke="black" points="725.659,-983.163 721.455,-973.438 718.676,-983.662 725.659,-983.163"/>
</g>
<!-- n15&#45;&gt;n14 -->
<g id="edge19" class="edge"><title>n15&#45;&gt;n14</title>
<path fill="none" stroke="black" d="M537.692,-1213.02C545.862,-1203.15 555.472,-1191.55 564.628,-1180.5"/>
<polygon fill="black" stroke="black" points="567.505,-1182.51 571.188,-1172.58 562.114,-1178.05 567.505,-1182.51"/>
</g>
<!-- n20 -->
<g id="node20" class="node"><title>n20</title>
<g id="a_node20"><a xlink:title="[[C]]:&#45;1&#45;1">
<ellipse fill="none" stroke="black" cx="209" cy="-1138" rx="70.5656" ry="37.4533"/>
<text text-anchor="middle" x="209" y="-1149.3" font-family="Times,serif" font-size="14.00">Node20</text>
<text text-anchor="start" x="167" y="-1134.3" font-family="Times,serif" font-size="14.00">input = {}</text>
<text text-anchor="middle" x="209" y="-1119.3" font-family="Times,serif" font-size="14.00">selectindex = 1</text>
</a>
</g>
</g>
<!-- n15&#45;&gt;n20 -->
<g id="edge24" class="edge"><title>n15&#45;&gt;n20</title>
<path fill="none" stroke="black" d="M460.508,-1219.84C409.148,-1203.33 333.206,-1178.92 278.216,-1161.25"/>
<polygon fill="black" stroke="black" points="279.139,-1157.87 268.548,-1158.14 276.997,-1164.53 279.139,-1157.87"/>
</g>
<!-- n21 -->
<g id="node21" class="node"><title>n21</title>
<g id="a_node21"><a xlink:title="[[C]]:&#45;1&#45;2">
<ellipse fill="none" stroke="black" cx="436" cy="-1138" rx="70.5656" ry="37.4533"/>
<text text-anchor="middle" x="436" y="-1149.3" font-family="Times,serif" font-size="14.00">Node21</text>
<text text-anchor="start" x="394" y="-1134.3" font-family="Times,serif" font-size="14.00">input = {}</text>
<text text-anchor="middle" x="436" y="-1119.3" font-family="Times,serif" font-size="14.00">selectindex = 2</text>
</a>
</g>
</g>
<!-- n15&#45;&gt;n21 -->
<g id="edge25" class="edge"><title>n15&#45;&gt;n21</title>
<path fill="none" stroke="black" d="M496.351,-1212.76C488.355,-1202.99 478.987,-1191.54 470.05,-1180.62"/>
<polygon fill="black" stroke="black" points="472.685,-1178.31 463.644,-1172.79 467.267,-1182.74 472.685,-1178.31"/>
</g>
<!-- n16 -->
<g id="node16" class="node"><title>n16</title>
<g id="a_node16"><a xlink:title="[/home/siyuan/Workspace/dkt/scripts/test.lua]:30">
<ellipse fill="none" stroke="black" cx="173" cy="-1037" rx="94.0678" ry="26.7407"/>
<text text-anchor="middle" x="173" y="-1040.8" font-family="Times,serif" font-size="14.00">inputM (16)</text>
<text text-anchor="middle" x="173" y="-1025.8" font-family="Times,serif" font-size="14.00">module = nn.Identity</text>
</a>
</g>
</g>
<!-- n16&#45;&gt;n11 -->
<g id="edge16" class="edge"><title>n16&#45;&gt;n11</title>
<path fill="none" stroke="black" d="M163.896,-1010.25C159.836,-998.765 154.987,-985.048 150.588,-972.606"/>
<polygon fill="black" stroke="black" points="153.814,-971.229 147.18,-962.968 147.214,-973.562 153.814,-971.229"/>
</g>
<!-- n17 -->
<g id="node17" class="node"><title>n17</title>
<g id="a_node17"><a xlink:title="[/home/siyuan/Workspace/dkt/scripts/test.lua]:31">
<ellipse fill="none" stroke="black" cx="434" cy="-1037" rx="94.0678" ry="26.7407"/>
<text text-anchor="middle" x="434" y="-1040.8" font-family="Times,serif" font-size="14.00">inputX (17)</text>
<text text-anchor="middle" x="434" y="-1025.8" font-family="Times,serif" font-size="14.00">module = nn.Identity</text>
</a>
</g>
</g>
<!-- n17&#45;&gt;n12 -->
<g id="edge17" class="edge"><title>n17&#45;&gt;n12</title>
<path fill="none" stroke="black" d="M433.737,-1009.99C433.624,-998.823 433.491,-985.581 433.368,-973.462"/>
<polygon fill="black" stroke="black" points="436.865,-973.145 433.264,-963.181 429.866,-973.216 436.865,-973.145"/>
</g>
<!-- n18&#45;&gt;n13 -->
<g id="edge18" class="edge"><title>n18&#45;&gt;n13</title>
<path fill="none" stroke="black" d="M475.589,-606.073C475.773,-597.999 475.979,-588.943 476.175,-580.296"/>
<polygon fill="black" stroke="black" points="479.68,-580.123 476.408,-570.046 472.682,-579.964 479.68,-580.123"/>
</g>
<!-- n19 -->
<g id="node19" class="node"><title>n19</title>
<g id="a_node19"><a xlink:title="[[C]]:&#45;1">
<ellipse fill="none" stroke="black" cx="517" cy="-1329" rx="51.99" ry="26.7407"/>
<text text-anchor="middle" x="517" y="-1332.8" font-family="Times,serif" font-size="14.00">Node19</text>
<text text-anchor="middle" x="517" y="-1317.8" font-family="Times,serif" font-size="14.00">input = {}</text>
</a>
</g>
</g>
<!-- n19&#45;&gt;n15 -->
<g id="edge20" class="edge"><title>n19&#45;&gt;n15</title>
<path fill="none" stroke="black" d="M517,-1302.07C517,-1294 517,-1284.94 517,-1276.3"/>
<polygon fill="black" stroke="black" points="520.5,-1276.05 517,-1266.05 513.5,-1276.05 520.5,-1276.05"/>
</g>
<!-- n20&#45;&gt;n16 -->
<g id="edge21" class="edge"><title>n20&#45;&gt;n16</title>
<path fill="none" stroke="black" d="M195.901,-1100.98C192.624,-1091.97 189.111,-1082.31 185.846,-1073.33"/>
<polygon fill="black" stroke="black" points="189.13,-1072.11 182.423,-1063.91 182.551,-1074.51 189.13,-1072.11"/>
</g>
<!-- n21&#45;&gt;n17 -->
<g id="edge22" class="edge"><title>n21&#45;&gt;n17</title>
<path fill="none" stroke="black" d="M435.261,-1100.42C435.087,-1091.8 434.902,-1082.63 434.728,-1074.04"/>
<polygon fill="black" stroke="black" points="438.225,-1073.85 434.524,-1063.92 431.227,-1073.99 438.225,-1073.85"/>
</g>
</g>
</svg>
